<svg xmlns="http://www.w3.org/2000/svg" xmlns:xlink="http://www.w3.org/1999/xlink" width="500" zoomAndPan="magnify" viewBox="0 0 375 374.999991" height="500" preserveAspectRatio="xMidYMid meet" version="1.0"><defs><g/></defs><g fill="#000000" fill-opacity="1"><g transform="translate(225.999539, 305.805674)"><g><path d="M 137.90625 -249.03125 C 137.90625 -244.382812 136.863281 -240.226562 134.78125 -236.5625 C 132.707031 -232.894531 129.957031 -229.773438 126.53125 -227.203125 C 123.101562 -224.640625 119.3125 -222.5 115.15625 -220.78125 C 111 -219.070312 106.96875 -217.851562 103.0625 -217.125 C 102.570312 -189.488281 101.53125 -162.832031 99.9375 -137.15625 C 98.351562 -111.488281 95.847656 -84.960938 92.421875 -57.578125 L 94.625 -57.578125 C 98.539062 -57.578125 102.390625 -57.148438 106.171875 -56.296875 C 109.960938 -55.441406 113.382812 -53.972656 116.4375 -51.890625 C 119.5 -49.816406 121.945312 -47.25 123.78125 -44.1875 C 125.613281 -41.132812 126.53125 -37.410156 126.53125 -33.015625 C 126.53125 -27.390625 124.753906 -22.5 121.203125 -18.34375 C 117.660156 -14.1875 113.015625 -10.640625 107.265625 -7.703125 C 101.523438 -4.765625 95.109375 -2.316406 88.015625 -0.359375 C 80.929688 1.585938 73.84375 3.113281 66.75 4.21875 C 59.65625 5.320312 52.929688 6.113281 46.578125 6.59375 C 40.222656 7.082031 35.085938 7.328125 31.171875 7.328125 C 28.242188 7.328125 24.640625 7.207031 20.359375 6.96875 C 16.078125 6.726562 12.039062 5.992188 8.25 4.765625 C 4.457031 3.546875 1.21875 1.710938 -1.46875 -0.734375 C -4.15625 -3.179688 -5.5 -6.484375 -5.5 -10.640625 C -5.5 -15.773438 -4.457031 -20.359375 -2.375 -24.390625 C -0.300781 -28.421875 2.441406 -32.023438 5.859375 -35.203125 C 9.285156 -38.390625 13.140625 -40.957031 17.421875 -42.90625 C 21.703125 -44.863281 26.039062 -46.332031 30.4375 -47.3125 C 32.15625 -60.757812 33.742188 -74.144531 35.203125 -87.46875 C 36.671875 -100.789062 37.648438 -114.300781 38.140625 -128 C 38.628906 -141.9375 39.117188 -155.6875 39.609375 -169.25 C 40.097656 -182.820312 40.585938 -196.457031 41.078125 -210.15625 C 39.367188 -209.90625 37.78125 -209.71875 36.3125 -209.59375 C 34.84375 -209.476562 33.5 -209.421875 32.28125 -209.421875 C 28.851562 -209.421875 25.179688 -209.785156 21.265625 -210.515625 C 17.359375 -211.253906 13.691406 -212.539062 10.265625 -214.375 C 6.847656 -216.207031 3.976562 -218.46875 1.65625 -221.15625 C -0.664062 -223.84375 -1.828125 -227.265625 -1.828125 -231.421875 C -1.828125 -239.734375 1.65625 -246.578125 8.625 -251.953125 C 15.59375 -257.335938 23.90625 -261.492188 33.5625 -264.421875 C 43.21875 -267.359375 53.054688 -269.378906 63.078125 -270.484375 C 73.109375 -271.585938 81.175781 -272.140625 87.28125 -272.140625 C 90.707031 -272.140625 95.234375 -271.894531 100.859375 -271.40625 C 106.484375 -270.914062 112.046875 -269.8125 117.546875 -268.09375 C 123.046875 -266.382812 127.8125 -264.0625 131.84375 -261.125 C 135.882812 -258.195312 137.90625 -254.164062 137.90625 -249.03125 Z M 137.90625 -249.03125 "/></g></g></g><g fill="#000000" fill-opacity="1"><g transform="translate(5.206607, 305.805674)"><g><path d="M 207.59375 -128.734375 C 207.59375 -118.710938 207.101562 -108.378906 206.125 -97.734375 C 205.144531 -87.097656 203.429688 -76.769531 200.984375 -66.75 C 198.535156 -56.726562 195.171875 -47.253906 190.890625 -38.328125 C 186.617188 -29.398438 181.179688 -21.570312 174.578125 -14.84375 C 167.972656 -8.125 160.023438 -2.8125 150.734375 1.09375 C 141.441406 5.007812 130.5625 6.96875 118.09375 6.96875 C 99.757812 6.96875 83.804688 2.691406 70.234375 -5.859375 C 56.660156 -14.421875 45.347656 -25.363281 36.296875 -38.6875 C 27.253906 -52.019531 20.53125 -66.9375 16.125 -83.4375 C 11.726562 -99.9375 9.53125 -116.257812 9.53125 -132.40625 C 9.53125 -134.113281 9.53125 -135.703125 9.53125 -137.171875 C 9.53125 -138.640625 9.65625 -139.984375 9.90625 -141.203125 C 10.144531 -146.335938 10.570312 -153.304688 11.1875 -162.109375 C 11.800781 -170.910156 12.835938 -180.320312 14.296875 -190.34375 C 15.765625 -200.375 17.660156 -210.644531 19.984375 -221.15625 C 22.304688 -231.664062 25.363281 -241.078125 29.15625 -249.390625 C 32.945312 -257.703125 37.53125 -264.546875 42.90625 -269.921875 C 48.289062 -275.304688 54.648438 -278 61.984375 -278 C 67.359375 -278 71.878906 -276.410156 75.546875 -273.234375 C 79.210938 -270.054688 82.207031 -266.082031 84.53125 -261.3125 C 86.851562 -256.550781 88.503906 -251.539062 89.484375 -246.28125 C 90.460938 -241.019531 90.953125 -236.191406 90.953125 -231.796875 C 90.953125 -225.191406 90.28125 -218.523438 88.9375 -211.796875 C 87.59375 -205.078125 86.3125 -198.414062 85.09375 -191.8125 C 83.132812 -181.300781 81.539062 -170.785156 80.3125 -160.265625 C 79.09375 -149.753906 78.484375 -139 78.484375 -128 C 78.484375 -122.375 78.789062 -115.523438 79.40625 -107.453125 C 80.019531 -99.390625 81.546875 -91.628906 83.984375 -84.171875 C 86.429688 -76.710938 89.914062 -70.351562 94.4375 -65.09375 C 98.957031 -59.84375 105.132812 -57.21875 112.96875 -57.21875 C 120.539062 -57.21875 126.585938 -59.785156 131.109375 -64.921875 C 135.640625 -70.054688 139.003906 -76.164062 141.203125 -83.25 C 143.398438 -90.34375 144.804688 -97.800781 145.421875 -105.625 C 146.035156 -113.445312 146.34375 -120.171875 146.34375 -125.796875 C 146.34375 -141.929688 144.992188 -157.882812 142.296875 -173.65625 C 139.609375 -189.425781 136.066406 -205.140625 131.671875 -220.796875 C 130.441406 -224.953125 129.398438 -229.109375 128.546875 -233.265625 C 127.691406 -237.421875 127.265625 -241.578125 127.265625 -245.734375 C 127.265625 -252.578125 129.28125 -258.566406 133.3125 -263.703125 C 137.351562 -268.835938 143.039062 -271.40625 150.375 -271.40625 C 156.488281 -271.40625 162.171875 -269.019531 167.421875 -264.25 C 172.679688 -259.476562 177.390625 -253.242188 181.546875 -245.546875 C 185.703125 -237.847656 189.304688 -229.226562 192.359375 -219.6875 C 195.421875 -210.15625 198.050781 -200.679688 200.25 -191.265625 C 202.445312 -181.847656 204.097656 -172.859375 205.203125 -164.296875 C 206.304688 -155.742188 206.976562 -148.78125 207.21875 -143.40625 C 207.46875 -140.957031 207.59375 -138.570312 207.59375 -136.25 C 207.59375 -133.925781 207.59375 -131.421875 207.59375 -128.734375 Z M 207.59375 -128.734375 "/></g></g></g></svg>